<?xml version="1.0" standalone="no"?>
<!DOCTYPE svg PUBLIC "-//W3C//DTD SVG 20010904//EN"
 "http://www.w3.org/TR/2001/REC-SVG-20010904/DTD/svg10.dtd">
<svg version="1.0" xmlns="http://www.w3.org/2000/svg"
 width="512.000000pt" height="512.000000pt" viewBox="0 0 512.000000 512.000000"
 preserveAspectRatio="xMidYMid meet">

<g transform="translate(0.000000,512.000000) scale(0.100000,-0.100000)"
fill="#000000" stroke="none">
<path d="M2385 3461 l-140 -6 -154 -79 c-194 -99 -338 -195 -443 -295 l-82
-78 380 -6 c208 -4 613 -10 899 -14 l521 -6 38 114 c22 63 61 163 88 223 30
66 46 112 40 118 -5 5 -63 15 -128 23 -122 15 -717 18 -1019 6z"/>
<path d="M3720 3449 c-68 -25 -240 -393 -240 -514 0 -33 0 -34 58 -41 41 -5
67 -15 94 -35 41 -33 103 -122 113 -162 6 -24 4 -27 -16 -27 -25 0 -344 -57
-366 -65 -7 -2 -13 -11 -13 -19 0 -24 -50 -56 -87 -56 -18 0 -50 7 -70 15
-107 45 -183 -6 -318 -215 -69 -106 -109 -150 -136 -150 -17 0 -59 43 -59 61
0 5 -12 34 -26 64 l-27 56 -26 -24 c-94 -88 -291 -122 -674 -116 -222 4 -226
4 -251 28 l-26 24 -52 -26 c-79 -39 -172 -60 -278 -61 -115 -1 -157 7 -205 40
-36 24 -38 24 -57 7 -17 -15 -39 -18 -152 -18 -86 0 -142 5 -162 13 -17 7 -64
50 -104 94 -69 76 -74 84 -78 135 -4 50 -8 57 -43 82 -21 14 -41 34 -44 44 -9
24 -20 21 -60 -15 l-36 -33 8 -85 8 -85 68 -5 c72 -5 97 -21 97 -62 0 -14 -8
-18 -34 -18 -61 0 -189 21 -218 36 -16 8 -34 11 -41 7 -7 -4 -14 -8 -17 -9 -3
0 -20 -9 -37 -20 l-33 -19 1 -140 c1 -77 -2 -157 -6 -177 -12 -62 -1 -82 60
-113 71 -36 69 -54 -7 -79 -77 -25 -79 -48 -5 -81 53 -25 187 -59 267 -69 447
-56 597 -61 1623 -60 560 1 943 6 948 11 6 6 0 18 -16 33 -31 29 -32 44 -4 35
12 -4 37 -7 57 -7 47 0 85 41 109 119 25 80 25 320 0 413 -28 104 -71 187
-109 210 -42 25 -64 25 -111 0 -49 -26 -47 -11 6 44 76 79 160 81 243 4 51
-47 107 -153 124 -235 20 -93 8 -260 -28 -381 -16 -56 -27 -104 -23 -106 3 -2
101 11 216 29 196 30 451 62 675 85 52 5 165 12 250 15 213 8 289 14 326 30
87 36 151 136 160 251 6 79 -6 71 -26 -16 -25 -108 -64 -160 -119 -160 -20 0
-44 7 -54 14 -17 13 -16 17 17 60 50 66 70 163 70 341 -1 233 -36 352 -118
400 -24 14 -48 36 -54 50 -9 20 -19 25 -50 25 -21 0 -202 -27 -402 -60 -200
-33 -364 -59 -366 -57 -11 12 -134 206 -134 211 0 3 31 6 68 6 38 0 102 9 143
20 55 14 107 20 201 20 l127 0 -18 53 c-24 67 -144 340 -174 392 -21 37 -26
40 -77 47 -81 9 -221 8 -250 -3z m137 -334 c46 -14 143 -85 143 -104 0 -5 -48
-11 -107 -15 -60 -3 -141 -9 -180 -13 -70 -6 -73 -5 -73 16 0 32 26 77 57 99
49 34 88 38 160 17z m-2130 -1184 c32 -38 70 -83 84 -102 l26 -33 254 -1 c221
0 259 -2 293 -18 26 -11 36 -21 30 -27 -17 -17 -199 -29 -435 -30 l-226 0 -27
40 c-14 22 -28 40 -31 40 -2 0 -14 -18 -25 -41 -36 -70 -73 -80 -329 -86 -407
-10 -717 34 -868 123 l-48 28 40 8 c25 5 49 19 62 35 l22 28 33 -32 c76 -72
201 -105 463 -124 132 -9 520 -7 531 3 1 2 12 59 24 128 12 69 23 131 26 138
6 22 39 -3 101 -77z m2627 42 c-16 -12 -56 -34 -89 -47 -117 -47 -523 -126
-643 -126 -71 1 -75 2 -57 16 48 36 427 136 673 178 146 25 168 21 116 -21z"/>
<path d="M4100 3415 c0 -3 34 -74 76 -158 42 -83 85 -177 96 -207 10 -29 24
-58 31 -62 6 -4 67 -8 135 -8 l122 0 0 33 c0 63 -20 107 -73 160 -58 57 -217
167 -314 216 -64 32 -73 35 -73 26z"/>
<path d="M4795 2843 c-57 -4 -75 -13 -75 -40 0 -9 15 -11 58 -7 55 6 60 5 79
-20 12 -15 24 -46 28 -69 19 -126 52 -141 40 -18 -4 42 -8 94 -9 116 -1 45 -2
45 -121 38z"/>
<path d="M763 2550 c-51 -16 -66 -48 -61 -131 3 -65 7 -74 35 -100 18 -15 49
-33 70 -38 52 -15 173 -13 203 2 34 17 53 60 58 129 6 82 -2 107 -44 124 -44
18 -217 27 -261 14z"/>
<path d="M2530 2553 c-501 -28 -570 -41 -704 -137 -93 -67 -148 -142 -59 -82
44 30 57 32 107 11 68 -29 178 -35 399 -25 195 9 214 12 251 34 49 29 139 119
160 161 15 29 15 30 -7 37 -23 6 -52 7 -147 1z"/>
<path d="M1186 2507 c-25 -38 -46 -107 -46 -152 0 -85 51 -109 210 -98 101 6
142 18 202 60 46 31 98 107 98 142 -1 64 -26 71 -254 71 -192 0 -196 0 -210
-23z"/>
</g>
</svg>
